<?xml version="1.0" encoding="utf-8"?><svg viewBox="0 0 284 57" xmlns="http://www.w3.org/2000/svg" xmlns:xlink="http://www.w3.org/1999/xlink"><style>:root>svg{display:none}:root>svg:target{display:block}</style><svg fill="none" viewBox="0 0 284 57" id="logo" xmlns="http://www.w3.org/2000/svg"><path d="M22.02 5.742c-.29 0-.57-.044-.835-.126v3.98h1.67v-3.98a2.802 2.802 0 01-.835.126z" fill="#135693"/><path d="M22.02 5.854a2.927 2.927 0 100-5.854 2.927 2.927 0 000 5.854z" fill="#6BC1DD"/><path opacity=".15" d="M21.557 2.927c0-1.176.694-2.19 1.695-2.655a2.927 2.927 0 100 5.31 2.926 2.926 0 01-1.695-2.655z" fill="#440075"/><path d="M40.676 14.164H38.95v15.922h1.726c.946 0 1.72-.774 1.72-1.72V15.883c0-.946-.774-1.72-1.72-1.72zM5.09 14.164H3.25c-.946 0-1.72.774-1.72 1.72v12.482c0 .946.774 1.72 1.72 1.72h1.84V14.164z" fill="#9EA7AF"/><path d="M6.264 50.916H3.899a3.88 3.88 0 01-2.179-.665v5.602c0 .631.516 1.147 1.147 1.147h3.397v-6.084zM40.141 50.916h-2.364V57h3.396a1.15 1.15 0 001.147-1.147v-5.602a3.883 3.883 0 01-2.179.665z" fill="#C5CCD3"/><path opacity=".15" d="M4.129 55.853v-4.937h-.23a3.881 3.881 0 01-2.179-.665v5.602c0 .63.516 1.147 1.147 1.147h2.409a1.15 1.15 0 01-1.147-1.147z" fill="#440075"/><path d="M6.264 42.149H3.899A3.9 3.9 0 000 46.049v1.146a3.9 3.9 0 003.9 3.9h2.363v-8.946zM40.141 42.148h-2.364v8.945h2.364a3.9 3.9 0 003.9-3.899v-1.147a3.9 3.9 0 00-3.9-3.9z" fill="#E6E9ED"/><path opacity=".15" d="M2.753 47.194v-1.147a3.9 3.9 0 013.899-3.9H3.899A3.9 3.9 0 000 46.048v1.147a3.9 3.9 0 003.9 3.9h2.752a3.9 3.9 0 01-3.9-3.9z" fill="#440075"/><path d="M25.828 34.517h-7.614v2.845h7.614v-2.845z" fill="#9EA7AF"/><path opacity=".15" d="M20.988 34.517h-2.774v2.845h2.774v-2.845z" fill="#440075"/><path d="M30.976 40.078v-1.85a.992.992 0 00-.989-.99H13.72a.992.992 0 00-.99.99v1.85h18.246z" fill="#C5CCD3"/><path opacity=".15" d="M16.16 40.078v-1.85c0-.545.446-.99.99-.99h-3.43a.992.992 0 00-.99.99v1.85h3.43z" fill="#440075"/><path d="M36.168 39.883H7.873c-.947 0-1.72.774-1.72 1.72V57h31.735V41.603c0-.946-.774-1.72-1.72-1.72z" fill="#9EA7AF"/><path opacity=".15" d="M11.158 39.883H7.873c-.947 0-1.72.774-1.72 1.72V57h3.284V41.603c0-.946.774-1.72 1.72-1.72z" fill="#440075"/><path d="M39.061 32.93c0 .946-.774 1.72-1.72 1.72H6.7c-.946 0-1.72-.774-1.72-1.72V11.204c0-.947.774-1.72 1.72-1.72h30.642c.946 0 1.72.773 1.72 1.72v21.724z" fill="#C5CCD3"/><path opacity=".15" d="M8.258 32.93V11.204c0-.947.774-1.72 1.72-1.72H6.699c-.946 0-1.72.773-1.72 1.72v21.724c0 .947.774 1.72 1.72 1.72h3.279c-.946 0-1.72-.773-1.72-1.72z" fill="#440075"/><path d="M34.99 22.1a5.942 5.942 0 01-5.942 5.941H14.992a5.942 5.942 0 110-11.883h14.056a5.942 5.942 0 015.942 5.941z" fill="#135693"/><path opacity=".15" d="M12.386 22.1a5.942 5.942 0 015.942-5.942h-3.336a5.942 5.942 0 100 11.883h3.336a5.942 5.942 0 01-5.942-5.942z" fill="#440075"/><path d="M14.399 24.42a2.315 2.315 0 002.31-2.32 2.315 2.315 0 00-2.31-2.32 2.315 2.315 0 00-2.31 2.32 2.315 2.315 0 002.31 2.32zM29.686 24.42a2.315 2.315 0 002.31-2.32 2.315 2.315 0 00-2.31-2.32 2.315 2.315 0 00-2.31 2.32 2.315 2.315 0 002.31 2.32z" fill="#6BC1DD"/><path d="M32.27 57v-9.998a1.15 1.15 0 00-1.147-1.147H12.918a1.15 1.15 0 00-1.147 1.147V57h20.5z" fill="#135693"/><path d="M24.084 57v-3.225a.345.345 0 00-.343-.344H20.3a.345.345 0 00-.344.344V57h4.128z" fill="#FFC502"/><path d="M17.203 49.444h-2.637a.835.835 0 110-1.67h2.637a.835.835 0 110 1.67zM16.056 51.483h-1.49a.835.835 0 110-1.67h1.49a.835.835 0 110 1.67zM17.203 53.521h-2.638a.835.835 0 010-1.67h2.638a.835.835 0 110 1.67zM15.712 55.56h-1.147a.835.835 0 110-1.67h1.147a.835.835 0 010 1.67z" fill="#C5CCD3"/><path d="M29.096 54.72H27.06a.875.875 0 010-1.748h2.036a.875.875 0 110 1.749z" fill="#E6E9ED"/><path d="M28.079 51.69a1.837 1.837 0 100-3.674 1.837 1.837 0 000 3.674z" fill="#5DC647"/><path d="M24.135 50.813a.353.353 0 01-.352.353h-3.526a.353.353 0 01-.352-.353v-1.922c0-.194.159-.352.352-.352h3.526c.194 0 .352.158.352.352v1.922z" fill="#6BC1DD"/><path d="M71.15 39l-1.608-4.47H63.39L61.814 39H59.04l6.022-16.16h2.862L73.946 39H71.15zm-2.301-6.737L67.34 27.88a33.1 33.1 0 01-.859-2.774c-.198.903-.488 1.89-.87 2.962l-1.453 4.194h4.69zm13.122-5.659c.521 0 .95.037 1.288.11l-.253 2.411a4.887 4.887 0 00-1.145-.132c-1.035 0-1.875.338-2.521 1.013-.639.675-.958 1.552-.958 2.631V39h-2.587V26.825h2.026l.341 2.146h.132a4.844 4.844 0 011.574-1.728 3.781 3.781 0 012.103-.639zm8.091 10.525c.632 0 1.263-.1 1.894-.298v1.949c-.287.125-.657.227-1.112.308a7.234 7.234 0 01-1.398.132c-2.451 0-3.677-1.291-3.677-3.875v-6.56h-1.662v-1.146l1.783-.947.88-2.576h1.597v2.709h3.468v1.96h-3.468V35.3c0 .624.154 1.086.462 1.387.316.294.727.44 1.233.44zM96.987 39H94.4V26.825h2.587V39zm-2.741-15.4c0-.463.124-.82.374-1.069.257-.25.62-.374 1.09-.374.455 0 .807.125 1.056.374.257.25.386.606.386 1.068 0 .44-.129.789-.386 1.046-.249.25-.601.374-1.056.374-.47 0-.833-.125-1.09-.374-.25-.257-.374-.606-.374-1.046zm12.56 5.184h-2.972V39h-2.598V28.784h-2.004v-1.21l2.004-.794v-.792c0-1.439.338-2.503 1.013-3.192.675-.698 1.706-1.046 3.093-1.046.91 0 1.806.15 2.686.451l-.682 1.96a5.969 5.969 0 00-1.828-.309c-.587 0-1.016.184-1.288.55-.264.36-.396.903-.396 1.63v.793h2.972v1.96zM111.463 39h-2.587V26.825h2.587V39zm-2.741-15.4c0-.463.125-.82.374-1.069.257-.25.62-.374 1.09-.374.455 0 .807.125 1.057.374.257.25.385.606.385 1.068 0 .44-.128.789-.385 1.046-.25.25-.602.374-1.057.374-.47 0-.833-.125-1.09-.374-.249-.257-.374-.606-.374-1.046zm11.372 15.62c-1.843 0-3.244-.536-4.206-1.607-.954-1.079-1.431-2.624-1.431-4.635 0-2.047.499-3.622 1.497-4.722 1.006-1.101 2.455-1.652 4.349-1.652 1.284 0 2.44.239 3.467.716l-.781 2.08c-1.094-.425-1.996-.638-2.708-.638-2.107 0-3.16 1.398-3.16 4.194 0 1.365.261 2.393.782 3.083.528.682 1.299 1.023 2.312 1.023a6.614 6.614 0 003.269-.858v2.257a5.101 5.101 0 01-1.486.583c-.521.117-1.156.176-1.904.176zm8.839-.22h-2.587V26.825h2.587V39zm-2.741-15.4c0-.463.125-.82.375-1.069.256-.25.62-.374 1.089-.374.455 0 .808.125 1.057.374.257.25.386.606.386 1.068 0 .44-.129.789-.386 1.046-.249.25-.602.374-1.057.374-.469 0-.833-.125-1.089-.374-.25-.257-.375-.606-.375-1.046zM140.261 39l-.517-1.695h-.088c-.587.74-1.178 1.247-1.773 1.519-.594.264-1.357.396-2.289.396-1.197 0-2.132-.323-2.808-.969-.667-.645-1.001-1.56-1.001-2.74 0-1.256.466-2.202 1.398-2.84.932-.64 2.352-.988 4.26-1.047l2.103-.066v-.65c0-.777-.184-1.357-.551-1.739-.359-.389-.921-.583-1.684-.583-.624 0-1.222.092-1.795.275-.572.184-1.122.4-1.651.65l-.836-1.85a8.838 8.838 0 012.168-.781 9.798 9.798 0 012.224-.276c1.548 0 2.715.338 3.501 1.013.792.675 1.189 1.736 1.189 3.182V39h-1.85zm-3.853-1.761c.94 0 1.692-.26 2.257-.782.572-.528.859-1.266.859-2.213v-1.056l-1.564.066c-1.218.044-2.106.25-2.664.616-.55.36-.825.914-.825 1.662 0 .543.161.965.484 1.266.323.294.807.44 1.453.44zm11.9 1.761h-2.587V21.87h2.587V39zm9.842 0V22.905h2.631V39h-2.631zm17.327 0h-2.598v-7.486c0-.94-.19-1.64-.572-2.102-.374-.463-.972-.694-1.794-.694-1.094 0-1.894.323-2.4.969-.507.646-.76 1.728-.76 3.247V39h-2.587V26.825h2.026l.363 1.596h.132c.367-.58.888-1.028 1.563-1.343.675-.316 1.424-.474 2.246-.474 2.921 0 4.381 1.487 4.381 4.459V39zm8.136-1.871c.631 0 1.262-.1 1.893-.298v1.949c-.286.125-.657.227-1.112.308a7.224 7.224 0 01-1.398.132c-2.451 0-3.677-1.291-3.677-3.875v-6.56h-1.662v-1.146l1.783-.947.881-2.576h1.596v2.709h3.468v1.96h-3.468V35.3c0 .624.155 1.086.463 1.387.315.294.726.44 1.233.44zm9.654 2.091c-1.893 0-3.376-.55-4.447-1.651-1.064-1.108-1.596-2.631-1.596-4.569 0-1.988.495-3.552 1.486-4.69.99-1.137 2.352-1.706 4.084-1.706 1.607 0 2.877.488 3.809 1.465.932.976 1.398 2.319 1.398 4.029v1.398h-8.113c.036 1.181.356 2.091.957 2.73.602.631 1.45.947 2.543.947.72 0 1.387-.067 2.004-.199a10.76 10.76 0 002.003-.682v2.102c-.631.301-1.269.514-1.915.639-.646.125-1.383.187-2.213.187zm-.473-10.656c-.822 0-1.483.26-1.982.782-.491.52-.785 1.28-.88 2.278h5.526c-.015-1.005-.257-1.765-.727-2.278-.469-.521-1.115-.782-1.937-.782zM203.527 39h-2.587V21.87h2.587V39zm6.297 0h-2.587V21.87h2.587V39zm6.297 0h-2.587V26.825h2.587V39zm-2.741-15.4c0-.463.125-.82.374-1.069.257-.25.62-.374 1.09-.374.455 0 .807.125 1.057.374.257.25.385.606.385 1.068 0 .44-.128.789-.385 1.046-.25.25-.602.374-1.057.374-.47 0-.833-.125-1.09-.374-.249-.257-.374-.606-.374-1.046zm16.733 3.225v1.42l-2.081.385c.191.257.349.572.473.947.125.374.188.77.188 1.189 0 1.255-.433 2.242-1.299 2.96-.866.72-2.059 1.08-3.578 1.08-.389 0-.741-.03-1.057-.088-.558.345-.837.748-.837 1.21 0 .28.129.489.386.628.264.14.745.21 1.442.21h2.124c1.343 0 2.364.285 3.061.858.697.572 1.046 1.398 1.046 2.477 0 1.38-.569 2.444-1.707 3.192-1.137.749-2.781 1.123-4.932 1.123-1.658 0-2.924-.293-3.797-.88-.874-.588-1.31-1.424-1.31-2.51 0-.749.234-1.38.704-1.894.477-.506 1.141-.859 1.993-1.057a1.989 1.989 0 01-.859-.704 1.84 1.84 0 01-.33-1.035c0-.455.128-.84.385-1.156.257-.316.638-.627 1.145-.936a3.431 3.431 0 01-1.541-1.32c-.389-.617-.584-1.336-.584-2.158 0-1.321.415-2.345 1.244-3.072.837-.726 2.026-1.09 3.567-1.09.345 0 .705.026 1.079.078.381.044.668.091.858.143h4.217zm-9.567 14.069c0 .557.25.987.749 1.288.506.3 1.215.45 2.125.45 1.409 0 2.458-.201 3.148-.605.69-.403 1.035-.94 1.035-1.607 0-.528-.191-.906-.573-1.134-.374-.22-1.075-.33-2.102-.33h-1.96c-.741 0-1.332.172-1.772.517-.433.353-.65.826-.65 1.42zm1.112-10.128c0 .763.195 1.35.584 1.761.396.411.961.617 1.695.617 1.497 0 2.246-.8 2.246-2.4 0-.793-.187-1.402-.562-1.828-.367-.433-.928-.65-1.684-.65-.749 0-1.317.214-1.706.64-.382.425-.573 1.045-.573 1.86zm16.04 8.454c-1.894 0-3.376-.55-4.448-1.651-1.064-1.108-1.596-2.631-1.596-4.569 0-1.988.495-3.552 1.486-4.69.991-1.137 2.352-1.706 4.084-1.706 1.607 0 2.877.488 3.809 1.465.932.976 1.398 2.319 1.398 4.029v1.398h-8.113c.037 1.181.356 2.091.958 2.73.602.631 1.449.947 2.543.947.719 0 1.387-.067 2.003-.199.624-.139 1.292-.366 2.004-.682v2.102a7.94 7.94 0 01-1.916.639c-.646.125-1.383.187-2.212.187zm-.474-10.656c-.822 0-1.482.26-1.981.782-.492.52-.786 1.28-.881 2.278h5.526c-.014-1.005-.257-1.765-.726-2.278-.47-.521-1.116-.782-1.938-.782zM256.082 39h-2.598v-7.486c0-.94-.191-1.64-.573-2.102-.374-.463-.972-.694-1.794-.694-1.094 0-1.893.323-2.4.969-.506.646-.759 1.728-.759 3.247V39h-2.587V26.825h2.025l.363 1.596h.132c.367-.58.889-1.028 1.564-1.343.675-.316 1.423-.474 2.245-.474 2.921 0 4.382 1.487 4.382 4.459V39zm8.509.22c-1.842 0-3.243-.536-4.205-1.607-.954-1.079-1.431-2.624-1.431-4.635 0-2.047.499-3.622 1.497-4.722 1.006-1.101 2.455-1.652 4.349-1.652 1.284 0 2.44.239 3.467.716l-.781 2.08c-1.094-.425-1.997-.638-2.708-.638-2.107 0-3.16 1.398-3.16 4.194 0 1.365.261 2.393.782 3.083.528.682 1.299 1.023 2.312 1.023a6.614 6.614 0 003.269-.858v2.257a5.101 5.101 0 01-1.486.583c-.521.117-1.156.176-1.905.176zm11.57 0c-1.893 0-3.376-.55-4.447-1.651-1.064-1.108-1.596-2.631-1.596-4.569 0-1.988.495-3.552 1.486-4.69.991-1.137 2.352-1.706 4.084-1.706 1.607 0 2.877.488 3.809 1.465.932.976 1.398 2.319 1.398 4.029v1.398h-8.113c.036 1.181.356 2.091.958 2.73.601.631 1.449.947 2.542.947.72 0 1.388-.067 2.004-.199.624-.139 1.292-.366 2.004-.682v2.102c-.632.301-1.27.514-1.916.639-.646.125-1.383.187-2.213.187zm-.473-10.656c-.822 0-1.482.26-1.982.782-.491.52-.785 1.28-.88 2.278h5.526c-.015-1.005-.257-1.765-.726-2.278-.47-.521-1.116-.782-1.938-.782z" fill="#3A68B8"/></svg></svg>